<?xml version="1.0" encoding="utf-8"?>
<!-- Generator: Adobe Illustrator 16.0.0, SVG Export Plug-In . SVG Version: 6.00 Build 0)  -->
<!DOCTYPE svg PUBLIC "-//W3C//DTD SVG 1.1//EN" "http://www.w3.org/Graphics/SVG/1.1/DTD/svg11.dtd">
<svg version="1.1" id="Capa_1" xmlns="http://www.w3.org/2000/svg" xmlns:xlink="http://www.w3.org/1999/xlink" x="0px" y="0px"
	 width="500px" height="500px" viewBox="0 30 500 500" enable-background="new 0 30 500 500" xml:space="preserve">
<g>
	<g>
		<g>
			<path fill="#010002" d="M249.737,30C111.82,30,0,141.775,0,279.636c0,137.862,111.82,249.636,249.737,249.636
				s249.737-111.774,249.737-249.636C499.475,141.743,387.655,30,249.737,30z M314.294,279.604l-40.926,0.031l-0.031,149.781h-56.16
				v-149.78h-37.46v-51.613l37.46-0.03l-0.062-30.394c0-42.126,11.425-67.745,61.029-67.745h41.332v51.644h-25.848
				c-19.323,0-20.26,7.208-20.26,20.657l-0.063,25.838h46.451L314.294,279.604z"/>
		</g>
	</g>
</g>
</svg>
